<?xml version="1.0" encoding="UTF-8" standalone="no"?>
<!DOCTYPE svg PUBLIC "-//W3C//DTD SVG 1.1//EN"
 "http://www.w3.org/Graphics/SVG/1.1/DTD/svg11.dtd">
<!-- Generated by graphviz version 2.38.0 (20140413.2041)
 -->
<!-- Title: G Pages: 1 -->
<svg width="795pt" height="2828pt"
 viewBox="0.00 0.00 794.76 2828.00" xmlns="http://www.w3.org/2000/svg" xmlns:xlink="http://www.w3.org/1999/xlink">
<g id="graph0" class="graph" transform="scale(1 1) rotate(0) translate(4 2824)">
<title>G</title>
<polygon fill="white" stroke="none" points="-4,4 -4,-2824 790.758,-2824 790.758,4 -4,4"/>
<g id="clust1" class="cluster"><title>cluster_Global</title>
<path fill="none" stroke="gray" d="M189.379,-476C189.379,-476 766.758,-476 766.758,-476 772.758,-476 778.758,-482 778.758,-488 778.758,-488 778.758,-2800 778.758,-2800 778.758,-2806 772.758,-2812 766.758,-2812 766.758,-2812 189.379,-2812 189.379,-2812 183.379,-2812 177.379,-2806 177.379,-2800 177.379,-2800 177.379,-488 177.379,-488 177.379,-482 183.379,-476 189.379,-476"/>
<text text-anchor="middle" x="478.068" y="-2799.2" font-family="Times,serif" font-size="11.00" fill="gray">Global</text>
</g>
<g id="clust2" class="cluster"><title>cluster_\bcGen</title>
<path fill="none" stroke="gray" d="M197.379,-484C197.379,-484 758.758,-484 758.758,-484 764.758,-484 770.758,-490 770.758,-496 770.758,-496 770.758,-2772 770.758,-2772 770.758,-2778 764.758,-2784 758.758,-2784 758.758,-2784 197.379,-2784 197.379,-2784 191.379,-2784 185.379,-2778 185.379,-2772 185.379,-2772 185.379,-496 185.379,-496 185.379,-490 191.379,-484 197.379,-484"/>
<text text-anchor="middle" x="478.068" y="-2771.2" font-family="Times,serif" font-size="11.00" fill="gray">bcGen</text>
</g>
<g id="clust3" class="cluster"><title>cluster_\bcGen\MainBundle</title>
<path fill="none" stroke="gray" d="M205.379,-492C205.379,-492 750.758,-492 750.758,-492 756.758,-492 762.758,-498 762.758,-504 762.758,-504 762.758,-2744 762.758,-2744 762.758,-2750 756.758,-2756 750.758,-2756 750.758,-2756 205.379,-2756 205.379,-2756 199.379,-2756 193.379,-2750 193.379,-2744 193.379,-2744 193.379,-504 193.379,-504 193.379,-498 199.379,-492 205.379,-492"/>
<text text-anchor="middle" x="478.068" y="-2743.2" font-family="Times,serif" font-size="11.00" fill="gray">MainBundle</text>
</g>
<g id="clust4" class="cluster"><title>cluster_\bcGen\MainBundle\Entity</title>
<path fill="none" stroke="gray" d="M213.379,-1468C213.379,-1468 742.758,-1468 742.758,-1468 748.758,-1468 754.758,-1474 754.758,-1480 754.758,-1480 754.758,-2716 754.758,-2716 754.758,-2722 748.758,-2728 742.758,-2728 742.758,-2728 213.379,-2728 213.379,-2728 207.379,-2728 201.379,-2722 201.379,-2716 201.379,-2716 201.379,-1480 201.379,-1480 201.379,-1474 207.379,-1468 213.379,-1468"/>
<text text-anchor="middle" x="478.068" y="-2715.2" font-family="Times,serif" font-size="11.00" fill="gray">Entity</text>
</g>
<g id="clust5" class="cluster"><title>cluster_\bcGen\MainBundle\Form</title>
<path fill="none" stroke="gray" d="M592.258,-1334C592.258,-1334 702.258,-1334 702.258,-1334 708.258,-1334 714.258,-1340 714.258,-1346 714.258,-1346 714.258,-1448 714.258,-1448 714.258,-1454 708.258,-1460 702.258,-1460 702.258,-1460 592.258,-1460 592.258,-1460 586.258,-1460 580.258,-1454 580.258,-1448 580.258,-1448 580.258,-1346 580.258,-1346 580.258,-1340 586.258,-1334 592.258,-1334"/>
<text text-anchor="middle" x="647.258" y="-1447.2" font-family="Times,serif" font-size="11.00" fill="gray">Form</text>
</g>
<g id="clust6" class="cluster"><title>cluster_\bcGen\MainBundle\Controller</title>
<path fill="none" stroke="gray" d="M595.758,-1254C595.758,-1254 698.758,-1254 698.758,-1254 704.758,-1254 710.758,-1260 710.758,-1266 710.758,-1266 710.758,-1314 710.758,-1314 710.758,-1320 704.758,-1326 698.758,-1326 698.758,-1326 595.758,-1326 595.758,-1326 589.758,-1326 583.758,-1320 583.758,-1314 583.758,-1314 583.758,-1266 583.758,-1266 583.758,-1260 589.758,-1254 595.758,-1254"/>
<text text-anchor="middle" x="647.258" y="-1313.2" font-family="Times,serif" font-size="11.00" fill="gray">Controller</text>
</g>
<g id="clust7" class="cluster"><title>cluster_\bcGen\MainBundle\Tests</title>
<path fill="none" stroke="gray" d="M553.758,-680C553.758,-680 740.758,-680 740.758,-680 746.758,-680 752.758,-686 752.758,-692 752.758,-692 752.758,-1234 752.758,-1234 752.758,-1240 746.758,-1246 740.758,-1246 740.758,-1246 553.758,-1246 553.758,-1246 547.758,-1246 541.758,-1240 541.758,-1234 541.758,-1234 541.758,-692 541.758,-692 541.758,-686 547.758,-680 553.758,-680"/>
<text text-anchor="middle" x="647.258" y="-1233.2" font-family="Times,serif" font-size="11.00" fill="gray">Tests</text>
</g>
<g id="clust8" class="cluster"><title>cluster_\bcGen\MainBundle\Tests\Entity</title>
<path fill="none" stroke="gray" d="M561.758,-768C561.758,-768 732.758,-768 732.758,-768 738.758,-768 744.758,-774 744.758,-780 744.758,-780 744.758,-1206 744.758,-1206 744.758,-1212 738.758,-1218 732.758,-1218 732.758,-1218 561.758,-1218 561.758,-1218 555.758,-1218 549.758,-1212 549.758,-1206 549.758,-1206 549.758,-780 549.758,-780 549.758,-774 555.758,-768 561.758,-768"/>
<text text-anchor="middle" x="647.258" y="-1205.2" font-family="Times,serif" font-size="11.00" fill="gray">Entity</text>
</g>
<g id="clust9" class="cluster"><title>cluster_\bcGen\MainBundle\Tests\Controller</title>
<path fill="none" stroke="gray" d="M572.258,-688C572.258,-688 722.258,-688 722.258,-688 728.258,-688 734.258,-694 734.258,-700 734.258,-700 734.258,-748 734.258,-748 734.258,-754 728.258,-760 722.258,-760 722.258,-760 572.258,-760 572.258,-760 566.258,-760 560.258,-754 560.258,-748 560.258,-748 560.258,-700 560.258,-700 560.258,-694 566.258,-688 572.258,-688"/>
<text text-anchor="middle" x="647.258" y="-747.2" font-family="Times,serif" font-size="11.00" fill="gray">Controller</text>
</g>
<g id="clust10" class="cluster"><title>cluster_\bcGen\MainBundle\DependencyInjection</title>
<path fill="none" stroke="gray" d="M582.258,-546C582.258,-546 712.258,-546 712.258,-546 718.258,-546 724.258,-552 724.258,-558 724.258,-558 724.258,-660 724.258,-660 724.258,-666 718.258,-672 712.258,-672 712.258,-672 582.258,-672 582.258,-672 576.258,-672 570.258,-666 570.258,-660 570.258,-660 570.258,-558 570.258,-558 570.258,-552 576.258,-546 582.258,-546"/>
<text text-anchor="middle" x="647.258" y="-659.2" font-family="Times,serif" font-size="11.00" fill="gray">DependencyInjection</text>
</g>
<!-- \\bcGen\\MainBundle\\Entity\\Protein -->
<g id="node1" class="node"><title>\\bcGen\\MainBundle\\Entity\\Protein</title>
<polygon fill="none" stroke="black" points="679.258,-2700 615.258,-2700 615.258,-2664 679.258,-2664 679.258,-2700"/>
<text text-anchor="middle" x="647.258" y="-2679.2" font-family="Courier,monospace" font-size="11.00">Protein</text>
</g>
<!-- \\bcGen\\MainBundle\\Entity\\ChromosomeRepository -->
<g id="node2" class="node"><title>\\bcGen\\MainBundle\\Entity\\ChromosomeRepository</title>
<polygon fill="none" stroke="black" points="723.258,-1512 571.258,-1512 571.258,-1476 723.258,-1476 723.258,-1512"/>
<text text-anchor="middle" x="647.258" y="-1491.2" font-family="Courier,monospace" font-size="11.00">ChromosomeRepository</text>
</g>
<!-- \\Doctrine\\ORM\\EntityRepository -->
<g id="node40" class="node"><title>\\Doctrine\\ORM\\EntityRepository</title>
<ellipse fill="none" stroke="black" cx="237.879" cy="-450" rx="121.578" ry="18"/>
<text text-anchor="middle" x="237.879" y="-446.3" font-family="Times,serif" font-size="14.00" fill="gray">\Doctrine\ORMntityRepository</text>
</g>
<!-- \\bcGen\\MainBundle\\Entity\\ChromosomeRepository&#45;&gt;\\Doctrine\\ORM\\EntityRepository -->
<g id="edge1" class="edge"><title>\\bcGen\\MainBundle\\Entity\\ChromosomeRepository&#45;&gt;\\Doctrine\\ORM\\EntityRepository</title>
<path fill="none" stroke="black" d="M571.243,-1482.5C560.328,-1478.14 550.01,-1472.16 541.758,-1464 247.986,-1173.35 236.627,-610.662 238.198,-478.345"/>
<polygon fill="none" stroke="black" points="241.7,-478.275 238.355,-468.222 234.7,-478.166 241.7,-478.275"/>
</g>
<!-- \\bcGen\\MainBundle\\Entity\\Annotation -->
<g id="node3" class="node"><title>\\bcGen\\MainBundle\\Entity\\Annotation</title>
<polygon fill="none" stroke="black" points="689.258,-2592 605.258,-2592 605.258,-2556 689.258,-2556 689.258,-2592"/>
<text text-anchor="middle" x="647.258" y="-2571.2" font-family="Courier,monospace" font-size="11.00">Annotation</text>
</g>
<!-- \\bcGen\\MainBundle\\Entity\\Gene -->
<g id="node4" class="node"><title>\\bcGen\\MainBundle\\Entity\\Gene</title>
<polygon fill="none" stroke="black" points="674.258,-2538 620.258,-2538 620.258,-2502 674.258,-2502 674.258,-2538"/>
<text text-anchor="middle" x="647.258" y="-2517.2" font-family="Courier,monospace" font-size="11.00">Gene</text>
</g>
<!-- \\bcGen\\MainBundle\\Entity\\ProteinAnnotationRepository -->
<g id="node5" class="node"><title>\\bcGen\\MainBundle\\Entity\\ProteinAnnotationRepository</title>
<polygon fill="none" stroke="black" points="746.758,-2376 547.758,-2376 547.758,-2340 746.758,-2340 746.758,-2376"/>
<text text-anchor="middle" x="647.258" y="-2355.2" font-family="Courier,monospace" font-size="11.00">ProteinAnnotationRepository</text>
</g>
<!-- \\bcGen\\MainBundle\\Entity\\ProteinAnnotationRepository&#45;&gt;\\Doctrine\\ORM\\EntityRepository -->
<g id="edge2" class="edge"><title>\\bcGen\\MainBundle\\Entity\\ProteinAnnotationRepository&#45;&gt;\\Doctrine\\ORM\\EntityRepository</title>
<path fill="none" stroke="black" d="M551.012,-2339.83C547.637,-2337.23 544.524,-2334.3 541.758,-2331 479.743,-2256.92 490.457,-1559.49 475.758,-1464 414.685,-1067.25 281.344,-595.889 247.051,-477.84"/>
<polygon fill="none" stroke="black" points="250.379,-476.75 244.221,-468.129 243.658,-478.708 250.379,-476.75"/>
</g>
<!-- \\bcGen\\MainBundle\\Entity\\Chromosome -->
<g id="node6" class="node"><title>\\bcGen\\MainBundle\\Entity\\Chromosome</title>
<polygon fill="none" stroke="black" points="689.258,-2430 605.258,-2430 605.258,-2394 689.258,-2394 689.258,-2430"/>
<text text-anchor="middle" x="647.258" y="-2409.2" font-family="Courier,monospace" font-size="11.00">Chromosome</text>
</g>
<!-- \\bcGen\\MainBundle\\Entity\\GeneConditionRepository -->
<g id="node7" class="node"><title>\\bcGen\\MainBundle\\Entity\\GeneConditionRepository</title>
<polygon fill="none" stroke="black" points="733.258,-2268 561.258,-2268 561.258,-2232 733.258,-2232 733.258,-2268"/>
<text text-anchor="middle" x="647.258" y="-2247.2" font-family="Courier,monospace" font-size="11.00">GeneConditionRepository</text>
</g>
<!-- \\bcGen\\MainBundle\\Entity\\GeneConditionRepository&#45;&gt;\\Doctrine\\ORM\\EntityRepository -->
<g id="edge3" class="edge"><title>\\bcGen\\MainBundle\\Entity\\GeneConditionRepository&#45;&gt;\\Doctrine\\ORM\\EntityRepository</title>
<path fill="none" stroke="black" d="M560.916,-2238.07C553.666,-2234.22 547.084,-2229.29 541.758,-2223 432.386,-2093.77 502.416,-1631.19 475.758,-1464 412.551,-1067.59 280.778,-595.978 246.938,-477.857"/>
<polygon fill="none" stroke="black" points="250.271,-476.785 244.146,-468.14 243.544,-478.718 250.271,-476.785"/>
</g>
<!-- \\bcGen\\MainBundle\\Entity\\Source -->
<g id="node8" class="node"><title>\\bcGen\\MainBundle\\Entity\\Source</title>
<polygon fill="none" stroke="black" points="266.379,-2565 209.379,-2565 209.379,-2529 266.379,-2529 266.379,-2565"/>
<text text-anchor="middle" x="237.879" y="-2544.2" font-family="Courier,monospace" font-size="11.00">Source</text>
</g>
<!-- \\bcGen\\MainBundle\\Entity\\LocusChromosome -->
<g id="node9" class="node"><title>\\bcGen\\MainBundle\\Entity\\LocusChromosome</title>
<polygon fill="none" stroke="black" points="706.258,-2322 588.258,-2322 588.258,-2286 706.258,-2286 706.258,-2322"/>
<text text-anchor="middle" x="647.258" y="-2301.2" font-family="Courier,monospace" font-size="11.00">LocusChromosome</text>
</g>
<!-- \\bcGen\\MainBundle\\Entity\\ProteinRepository -->
<g id="node10" class="node"><title>\\bcGen\\MainBundle\\Entity\\ProteinRepository</title>
<polygon fill="none" stroke="black" points="712.758,-2214 581.758,-2214 581.758,-2178 712.758,-2178 712.758,-2214"/>
<text text-anchor="middle" x="647.258" y="-2193.2" font-family="Courier,monospace" font-size="11.00">ProteinRepository</text>
</g>
<!-- \\bcGen\\MainBundle\\Entity\\ProteinRepository&#45;&gt;\\Doctrine\\ORM\\EntityRepository -->
<g id="edge4" class="edge"><title>\\bcGen\\MainBundle\\Entity\\ProteinRepository&#45;&gt;\\Doctrine\\ORM\\EntityRepository</title>
<path fill="none" stroke="black" d="M581.68,-2191.97C566.55,-2187.92 551.905,-2180.91 541.758,-2169 439.711,-2049.23 501.047,-1619.31 475.758,-1464 411.242,-1067.8 280.431,-596.034 246.869,-477.869"/>
<polygon fill="none" stroke="black" points="250.206,-476.806 244.1,-468.148 243.473,-478.724 250.206,-476.806"/>
</g>
<!-- \\bcGen\\MainBundle\\Entity\\LocusChromosomeRepository -->
<g id="node11" class="node"><title>\\bcGen\\MainBundle\\Entity\\LocusChromosomeRepository</title>
<polygon fill="none" stroke="black" points="739.758,-2106 554.758,-2106 554.758,-2070 739.758,-2070 739.758,-2106"/>
<text text-anchor="middle" x="647.258" y="-2085.2" font-family="Courier,monospace" font-size="11.00">LocusChromosomeRepository</text>
</g>
<!-- \\bcGen\\MainBundle\\Entity\\LocusChromosomeRepository&#45;&gt;\\Doctrine\\ORM\\EntityRepository -->
<g id="edge5" class="edge"><title>\\bcGen\\MainBundle\\Entity\\LocusChromosomeRepository&#45;&gt;\\Doctrine\\ORM\\EntityRepository</title>
<path fill="none" stroke="black" d="M554.334,-2071.96C549.693,-2068.87 545.439,-2065.25 541.758,-2061 454.347,-1960.13 498.313,-1595.56 475.758,-1464 407.924,-1068.35 279.551,-596.181 246.694,-477.898"/>
<polygon fill="none" stroke="black" points="250.038,-476.862 243.984,-468.167 243.295,-478.739 250.038,-476.862"/>
</g>
<!-- \\bcGen\\MainBundle\\Entity\\Locus -->
<g id="node12" class="node"><title>\\bcGen\\MainBundle\\Entity\\Locus</title>
<polygon fill="none" stroke="black" points="674.258,-2160 620.258,-2160 620.258,-2124 674.258,-2124 674.258,-2160"/>
<text text-anchor="middle" x="647.258" y="-2139.2" font-family="Courier,monospace" font-size="11.00">Locus</text>
</g>
<!-- \\bcGen\\MainBundle\\Entity\\InnerCommunication -->
<g id="node13" class="node"><title>\\bcGen\\MainBundle\\Entity\\InnerCommunication</title>
<polygon fill="none" stroke="black" points="716.258,-2484 578.258,-2484 578.258,-2448 716.258,-2448 716.258,-2484"/>
<text text-anchor="middle" x="647.258" y="-2463.2" font-family="Courier,monospace" font-size="11.00">InnerCommunication</text>
</g>
<!-- \\bcGen\\MainBundle\\Entity\\InnerCommunication&#45;&gt;\\bcGen\\MainBundle\\Entity\\Source -->
<g id="edge6" class="edge"><title>\\bcGen\\MainBundle\\Entity\\InnerCommunication&#45;&gt;\\bcGen\\MainBundle\\Entity\\Source</title>
<path fill="none" stroke="black" d="M578.072,-2479.56C491.463,-2496.78 345.035,-2525.89 276.442,-2539.53"/>
<polygon fill="none" stroke="black" points="275.637,-2536.12 266.512,-2541.51 277.003,-2542.99 275.637,-2536.12"/>
</g>
<!-- \\bcGen\\MainBundle\\Entity\\ConditionRepository -->
<g id="node14" class="node"><title>\\bcGen\\MainBundle\\Entity\\ConditionRepository</title>
<polygon fill="none" stroke="black" points="719.758,-1998 574.758,-1998 574.758,-1962 719.758,-1962 719.758,-1998"/>
<text text-anchor="middle" x="647.258" y="-1977.2" font-family="Courier,monospace" font-size="11.00">ConditionRepository</text>
</g>
<!-- \\bcGen\\MainBundle\\Entity\\ConditionRepository&#45;&gt;\\Doctrine\\ORM\\EntityRepository -->
<g id="edge7" class="edge"><title>\\bcGen\\MainBundle\\Entity\\ConditionRepository&#45;&gt;\\Doctrine\\ORM\\EntityRepository</title>
<path fill="none" stroke="black" d="M574.716,-1973.49C562.226,-1969.27 550.466,-1962.81 541.758,-1953 468.957,-1871 495.586,-1571.84 475.758,-1464 403.17,-1069.2 278.29,-596.405 246.443,-477.942"/>
<polygon fill="none" stroke="black" points="249.798,-476.942 243.818,-468.197 243.039,-478.763 249.798,-476.942"/>
</g>
<!-- \\bcGen\\MainBundle\\Entity\\AnnotationRepository -->
<g id="node15" class="node"><title>\\bcGen\\MainBundle\\Entity\\AnnotationRepository</title>
<polygon fill="none" stroke="black" points="723.258,-1944 571.258,-1944 571.258,-1908 723.258,-1908 723.258,-1944"/>
<text text-anchor="middle" x="647.258" y="-1923.2" font-family="Courier,monospace" font-size="11.00">AnnotationRepository</text>
</g>
<!-- \\bcGen\\MainBundle\\Entity\\AnnotationRepository&#45;&gt;\\Doctrine\\ORM\\EntityRepository -->
<g id="edge8" class="edge"><title>\\bcGen\\MainBundle\\Entity\\AnnotationRepository&#45;&gt;\\Doctrine\\ORM\\EntityRepository</title>
<path fill="none" stroke="black" d="M571.116,-1918.04C560.013,-1913.85 549.668,-1907.76 541.758,-1899 476.246,-1826.42 494.226,-1560.01 475.758,-1464 399.932,-1069.8 277.431,-596.566 246.272,-477.975"/>
<polygon fill="none" stroke="black" points="249.634,-476.998 243.704,-468.218 242.865,-478.779 249.634,-476.998"/>
</g>
<!-- \\bcGen\\MainBundle\\Entity\\GenomeRepository -->
<g id="node16" class="node"><title>\\bcGen\\MainBundle\\Entity\\GenomeRepository</title>
<polygon fill="none" stroke="black" points="709.758,-1836 584.758,-1836 584.758,-1800 709.758,-1800 709.758,-1836"/>
<text text-anchor="middle" x="647.258" y="-1815.2" font-family="Courier,monospace" font-size="11.00">GenomeRepository</text>
</g>
<!-- \\bcGen\\MainBundle\\Entity\\GenomeRepository&#45;&gt;\\Doctrine\\ORM\\EntityRepository -->
<g id="edge9" class="edge"><title>\\bcGen\\MainBundle\\Entity\\GenomeRepository&#45;&gt;\\Doctrine\\ORM\\EntityRepository</title>
<path fill="none" stroke="black" d="M584.695,-1813.77C568.813,-1809.82 553.036,-1802.9 541.758,-1791 439.771,-1683.39 507.292,-1608.87 475.758,-1464 390.38,-1071.76 274.898,-597.086 245.768,-478.078"/>
<polygon fill="none" stroke="black" points="249.148,-477.167 243.37,-468.286 242.349,-478.832 249.148,-477.167"/>
</g>
<!-- \\bcGen\\MainBundle\\Entity\\Condition -->
<g id="node17" class="node"><title>\\bcGen\\MainBundle\\Entity\\Condition</title>
<polygon fill="none" stroke="black" points="685.758,-1890 608.758,-1890 608.758,-1854 685.758,-1854 685.758,-1890"/>
<text text-anchor="middle" x="647.258" y="-1869.2" font-family="Courier,monospace" font-size="11.00">Condition</text>
</g>
<!-- \\bcGen\\MainBundle\\Entity\\Publication -->
<g id="node18" class="node"><title>\\bcGen\\MainBundle\\Entity\\Publication</title>
<polygon fill="none" stroke="black" points="692.758,-2646 601.758,-2646 601.758,-2610 692.758,-2610 692.758,-2646"/>
<text text-anchor="middle" x="647.258" y="-2625.2" font-family="Courier,monospace" font-size="11.00">Publication</text>
</g>
<!-- \\bcGen\\MainBundle\\Entity\\Publication&#45;&gt;\\bcGen\\MainBundle\\Entity\\Source -->
<g id="edge10" class="edge"><title>\\bcGen\\MainBundle\\Entity\\Publication&#45;&gt;\\bcGen\\MainBundle\\Entity\\Source</title>
<path fill="none" stroke="black" d="M601.496,-2619.1C520.658,-2603.03 351.731,-2569.44 276.463,-2554.47"/>
<polygon fill="none" stroke="black" points="276.973,-2551.01 266.482,-2552.49 275.608,-2557.87 276.973,-2551.01"/>
</g>
<!-- \\bcGen\\MainBundle\\Entity\\GeneRepository -->
<g id="node19" class="node"><title>\\bcGen\\MainBundle\\Entity\\GeneRepository</title>
<polygon fill="none" stroke="black" points="702.758,-1566 591.758,-1566 591.758,-1530 702.758,-1530 702.758,-1566"/>
<text text-anchor="middle" x="647.258" y="-1545.2" font-family="Courier,monospace" font-size="11.00">GeneRepository</text>
</g>
<!-- \\bcGen\\MainBundle\\Entity\\GeneRepository&#45;&gt;\\Doctrine\\ORM\\EntityRepository -->
<g id="edge11" class="edge"><title>\\bcGen\\MainBundle\\Entity\\GeneRepository&#45;&gt;\\Doctrine\\ORM\\EntityRepository</title>
<path fill="none" stroke="black" d="M591.523,-1544.62C573.657,-1540.94 555.024,-1533.97 541.758,-1521 383.539,-1366.34 266.021,-631.353 242.995,-478.058"/>
<polygon fill="none" stroke="black" points="246.438,-477.417 241.501,-468.043 239.514,-478.449 246.438,-477.417"/>
</g>
<!-- \\bcGen\\MainBundle\\Entity\\ProteinAnnotation -->
<g id="node20" class="node"><title>\\bcGen\\MainBundle\\Entity\\ProteinAnnotation</title>
<polygon fill="none" stroke="black" points="712.758,-1728 581.758,-1728 581.758,-1692 712.758,-1692 712.758,-1728"/>
<text text-anchor="middle" x="647.258" y="-1707.2" font-family="Courier,monospace" font-size="11.00">ProteinAnnotation</text>
</g>
<!-- \\bcGen\\MainBundle\\Entity\\Genome -->
<g id="node21" class="node"><title>\\bcGen\\MainBundle\\Entity\\Genome</title>
<polygon fill="none" stroke="black" points="675.758,-1674 618.758,-1674 618.758,-1638 675.758,-1638 675.758,-1674"/>
<text text-anchor="middle" x="647.258" y="-1653.2" font-family="Courier,monospace" font-size="11.00">Genome</text>
</g>
<!-- \\bcGen\\MainBundle\\Entity\\GeneCondition -->
<g id="node22" class="node"><title>\\bcGen\\MainBundle\\Entity\\GeneCondition</title>
<polygon fill="none" stroke="black" points="699.258,-1620 595.258,-1620 595.258,-1584 699.258,-1584 699.258,-1620"/>
<text text-anchor="middle" x="647.258" y="-1599.2" font-family="Courier,monospace" font-size="11.00">GeneCondition</text>
</g>
<!-- \\bcGen\\MainBundle\\Entity\\LocusRepository -->
<g id="node23" class="node"><title>\\bcGen\\MainBundle\\Entity\\LocusRepository</title>
<polygon fill="none" stroke="black" points="706.258,-2052 588.258,-2052 588.258,-2016 706.258,-2016 706.258,-2052"/>
<text text-anchor="middle" x="647.258" y="-2031.2" font-family="Courier,monospace" font-size="11.00">LocusRepository</text>
</g>
<!-- \\bcGen\\MainBundle\\Entity\\LocusRepository&#45;&gt;\\Doctrine\\ORM\\EntityRepository -->
<g id="edge12" class="edge"><title>\\bcGen\\MainBundle\\Entity\\LocusRepository&#45;&gt;\\Doctrine\\ORM\\EntityRepository</title>
<path fill="none" stroke="black" d="M588.169,-2031.28C570.903,-2027.56 553.488,-2020.39 541.758,-2007 461.656,-1915.57 496.948,-1583.69 475.758,-1464 405.779,-1068.72 278.982,-596.28 246.581,-477.918"/>
<polygon fill="none" stroke="black" points="249.93,-476.898 243.909,-468.18 243.18,-478.75 249.93,-476.898"/>
</g>
<!-- \\bcGen\\MainBundle\\Entity\\SourceRepository -->
<g id="node24" class="node"><title>\\bcGen\\MainBundle\\Entity\\SourceRepository</title>
<polygon fill="none" stroke="black" points="709.758,-1782 584.758,-1782 584.758,-1746 709.758,-1746 709.758,-1782"/>
<text text-anchor="middle" x="647.258" y="-1761.2" font-family="Courier,monospace" font-size="11.00">SourceRepository</text>
</g>
<!-- \\bcGen\\MainBundle\\Entity\\SourceRepository&#45;&gt;\\Doctrine\\ORM\\EntityRepository -->
<g id="edge13" class="edge"><title>\\bcGen\\MainBundle\\Entity\\SourceRepository&#45;&gt;\\Doctrine\\ORM\\EntityRepository</title>
<path fill="none" stroke="black" d="M584.668,-1759.47C568.881,-1755.5 553.159,-1748.65 541.758,-1737 538.83,-1734.01 289.334,-666.057 245.437,-478.086"/>
<polygon fill="none" stroke="black" points="248.799,-477.09 243.116,-468.148 241.982,-478.682 248.799,-477.09"/>
</g>
<!-- \\bcGen\\MainBundle\\Form\\SearchGenesType -->
<g id="node25" class="node"><title>\\bcGen\\MainBundle\\Form\\SearchGenesType</title>
<polygon fill="none" stroke="black" points="706.258,-1432 588.258,-1432 588.258,-1396 706.258,-1396 706.258,-1432"/>
<text text-anchor="middle" x="647.258" y="-1411.2" font-family="Courier,monospace" font-size="11.00">SearchGenesType</text>
</g>
<!-- \\Symfony\\Component\\Form\\AbstractType -->
<g id="node41" class="node"><title>\\Symfony\\Component\\Form\\AbstractType</title>
<ellipse fill="none" stroke="black" cx="237.879" cy="-396" rx="161.671" ry="18"/>
<text text-anchor="middle" x="237.879" y="-392.3" font-family="Times,serif" font-size="14.00" fill="gray">\Symfony\Component\Form\AbstractType</text>
</g>
<!-- \\bcGen\\MainBundle\\Form\\SearchGenesType&#45;&gt;\\Symfony\\Component\\Form\\AbstractType -->
<g id="edge14" class="edge"><title>\\bcGen\\MainBundle\\Form\\SearchGenesType&#45;&gt;\\Symfony\\Component\\Form\\AbstractType</title>
<path fill="none" stroke="black" d="M588.019,-1411.7C570.638,-1408.02 553.192,-1400.77 541.758,-1387 404.556,-1221.83 624.126,-578.22 475.758,-423 440.913,-386.546 385.583,-378.675 337.158,-380.437"/>
<polygon fill="none" stroke="black" points="336.75,-376.953 326.939,-380.952 337.103,-383.944 336.75,-376.953"/>
</g>
<!-- \\bcGen\\MainBundle\\Form\\SearchGeneType -->
<g id="node26" class="node"><title>\\bcGen\\MainBundle\\Form\\SearchGeneType</title>
<polygon fill="none" stroke="black" points="702.758,-1378 591.758,-1378 591.758,-1342 702.758,-1342 702.758,-1378"/>
<text text-anchor="middle" x="647.258" y="-1357.2" font-family="Courier,monospace" font-size="11.00">SearchGeneType</text>
</g>
<!-- \\bcGen\\MainBundle\\Form\\SearchGeneType&#45;&gt;\\Symfony\\Component\\Form\\AbstractType -->
<g id="edge15" class="edge"><title>\\bcGen\\MainBundle\\Form\\SearchGeneType&#45;&gt;\\Symfony\\Component\\Form\\AbstractType</title>
<path fill="none" stroke="black" d="M591.753,-1356.78C573.134,-1352.82 553.952,-1345.02 541.758,-1330 414.382,-1173.11 615.707,-568.787 475.758,-423 440.969,-386.76 385.925,-378.814 337.651,-380.479"/>
<polygon fill="none" stroke="black" points="337.28,-376.992 327.462,-380.973 337.62,-383.984 337.28,-376.992"/>
</g>
<!-- \\bcGen\\MainBundle\\Controller\\MainController -->
<g id="node27" class="node"><title>\\bcGen\\MainBundle\\Controller\\MainController</title>
<polygon fill="none" stroke="black" points="702.758,-1298 591.758,-1298 591.758,-1262 702.758,-1262 702.758,-1298"/>
<text text-anchor="middle" x="647.258" y="-1277.2" font-family="Courier,monospace" font-size="11.00">MainController</text>
</g>
<!-- \\Symfony\\Bundle\\FrameworkBundle\\Controller\\Controller -->
<g id="node42" class="node"><title>\\Symfony\\Bundle\\FrameworkBundle\\Controller\\Controller</title>
<ellipse fill="none" stroke="black" cx="237.879" cy="-342" rx="219.861" ry="18"/>
<text text-anchor="middle" x="237.879" y="-338.3" font-family="Times,serif" font-size="14.00" fill="gray">\Symfony\Bundle\FrameworkBundle\Controller\Controller</text>
</g>
<!-- \\bcGen\\MainBundle\\Controller\\MainController&#45;&gt;\\Symfony\\Bundle\\FrameworkBundle\\Controller\\Controller -->
<g id="edge16" class="edge"><title>\\bcGen\\MainBundle\\Controller\\MainController&#45;&gt;\\Symfony\\Bundle\\FrameworkBundle\\Controller\\Controller</title>
<path fill="none" stroke="black" d="M591.54,-1262.02C572.66,-1253.01 553.359,-1240.07 541.758,-1222 439.056,-1062 607.734,-505.853 475.758,-369 469.849,-362.872 463.36,-357.555 456.423,-352.958"/>
<polygon fill="none" stroke="black" points="457.776,-349.686 447.407,-347.512 454.157,-355.678 457.776,-349.686"/>
</g>
<!-- \\bcGen\\MainBundle\\Tests\\Entity\\GenomeTest -->
<g id="node28" class="node"><title>\\bcGen\\MainBundle\\Tests\\Entity\\GenomeTest</title>
<polygon fill="none" stroke="black" points="689.258,-1136 605.258,-1136 605.258,-1100 689.258,-1100 689.258,-1136"/>
<text text-anchor="middle" x="647.258" y="-1115.2" font-family="Courier,monospace" font-size="11.00">GenomeTest</text>
</g>
<!-- \\PHPUnit_Framework_TestCase -->
<g id="node44" class="node"><title>\\PHPUnit_Framework_TestCase</title>
<ellipse fill="none" stroke="black" cx="237.879" cy="-288" rx="126.978" ry="18"/>
<text text-anchor="middle" x="237.879" y="-284.3" font-family="Times,serif" font-size="14.00" fill="gray">\PHPUnit_Framework_TestCase</text>
</g>
<!-- \\bcGen\\MainBundle\\Tests\\Entity\\GenomeTest&#45;&gt;\\PHPUnit_Framework_TestCase -->
<g id="edge18" class="edge"><title>\\bcGen\\MainBundle\\Tests\\Entity\\GenomeTest&#45;&gt;\\PHPUnit_Framework_TestCase</title>
<path fill="none" stroke="black" d="M605.093,-1118.19C582.952,-1115.97 557.114,-1109.18 541.758,-1091 430.08,-958.787 596.369,-439.117 475.758,-315 438.246,-276.398 377.721,-270.047 327.242,-273.142"/>
<polygon fill="none" stroke="black" points="326.675,-269.674 316.963,-273.909 327.196,-276.655 326.675,-269.674"/>
</g>
<!-- \\bcGen\\MainBundle\\Tests\\Entity\\GeneTest -->
<g id="node29" class="node"><title>\\bcGen\\MainBundle\\Tests\\Entity\\GeneTest</title>
<polygon fill="none" stroke="black" points="682.758,-1082 611.758,-1082 611.758,-1046 682.758,-1046 682.758,-1082"/>
<text text-anchor="middle" x="647.258" y="-1061.2" font-family="Courier,monospace" font-size="11.00">GeneTest</text>
</g>
<!-- \\bcGen\\MainBundle\\Tests\\Entity\\GeneTest&#45;&gt;\\PHPUnit_Framework_TestCase -->
<g id="edge19" class="edge"><title>\\bcGen\\MainBundle\\Tests\\Entity\\GeneTest&#45;&gt;\\PHPUnit_Framework_TestCase</title>
<path fill="none" stroke="black" d="M611.549,-1064.69C588.197,-1063.14 558.688,-1056.92 541.758,-1037 437.405,-914.248 588.403,-430.189 475.758,-315 438.26,-276.656 378.037,-270.21 327.699,-273.195"/>
<polygon fill="none" stroke="black" points="327.167,-269.725 317.446,-273.939 327.673,-276.706 327.167,-269.725"/>
</g>
<!-- \\bcGen\\MainBundle\\Tests\\Entity\\GeneConditionTest -->
<g id="node30" class="node"><title>\\bcGen\\MainBundle\\Tests\\Entity\\GeneConditionTest</title>
<polygon fill="none" stroke="black" points="712.758,-1028 581.758,-1028 581.758,-992 712.758,-992 712.758,-1028"/>
<text text-anchor="middle" x="647.258" y="-1007.2" font-family="Courier,monospace" font-size="11.00">GeneConditionTest</text>
</g>
<!-- \\bcGen\\MainBundle\\Tests\\Entity\\GeneConditionTest&#45;&gt;\\PHPUnit_Framework_TestCase -->
<g id="edge20" class="edge"><title>\\bcGen\\MainBundle\\Tests\\Entity\\GeneConditionTest&#45;&gt;\\PHPUnit_Framework_TestCase</title>
<path fill="none" stroke="black" d="M581.721,-1005.93C566.591,-1001.89 551.935,-994.884 541.758,-983 444.727,-869.704 580.44,-421.266 475.758,-315 438.188,-276.862 378.116,-270.369 327.869,-273.28"/>
<polygon fill="none" stroke="black" points="327.36,-269.807 317.634,-274.008 327.857,-276.79 327.36,-269.807"/>
</g>
<!-- \\bcGen\\MainBundle\\Tests\\Entity\\LocusTest -->
<g id="node31" class="node"><title>\\bcGen\\MainBundle\\Tests\\Entity\\LocusTest</title>
<polygon fill="none" stroke="black" points="685.758,-974 608.758,-974 608.758,-938 685.758,-938 685.758,-974"/>
<text text-anchor="middle" x="647.258" y="-953.2" font-family="Courier,monospace" font-size="11.00">LocusTest</text>
</g>
<!-- \\bcGen\\MainBundle\\Tests\\Entity\\LocusTest&#45;&gt;\\PHPUnit_Framework_TestCase -->
<g id="edge21" class="edge"><title>\\bcGen\\MainBundle\\Tests\\Entity\\LocusTest&#45;&gt;\\PHPUnit_Framework_TestCase</title>
<path fill="none" stroke="black" d="M608.607,-956.373C585.827,-954.459 558.111,-947.93 541.758,-929 452.045,-825.155 572.483,-412.347 475.758,-315 438.229,-277.23 378.605,-270.601 328.566,-273.353"/>
<polygon fill="none" stroke="black" points="328.11,-269.876 318.371,-274.048 328.586,-276.86 328.11,-269.876"/>
</g>
<!-- \\bcGen\\MainBundle\\Tests\\Entity\\ChromosomeRepositoryTest -->
<g id="node32" class="node"><title>\\bcGen\\MainBundle\\Tests\\Entity\\ChromosomeRepositoryTest</title>
<polygon fill="none" stroke="black" points="736.758,-812 557.758,-812 557.758,-776 736.758,-776 736.758,-812"/>
<text text-anchor="middle" x="647.258" y="-791.2" font-family="Courier,monospace" font-size="11.00">ChromosomeRepositoryTest</text>
</g>
<!-- \\Symfony\\Bundle\\FrameworkBundle\\Test\\KernelTestCase -->
<g id="node45" class="node"><title>\\Symfony\\Bundle\\FrameworkBundle\\Test\\KernelTestCase</title>
<ellipse fill="none" stroke="black" cx="237.879" cy="-234" rx="215.562" ry="18"/>
<text text-anchor="middle" x="237.879" y="-230.3" font-family="Times,serif" font-size="14.00" fill="gray">\Symfony\Bundle\FrameworkBundleTest\KernelTestCase</text>
</g>
<!-- \\bcGen\\MainBundle\\Tests\\Entity\\ChromosomeRepositoryTest&#45;&gt;\\Symfony\\Bundle\\FrameworkBundle\\Test\\KernelTestCase -->
<g id="edge22" class="edge"><title>\\bcGen\\MainBundle\\Tests\\Entity\\ChromosomeRepositoryTest&#45;&gt;\\Symfony\\Bundle\\FrameworkBundle\\Test\\KernelTestCase</title>
<path fill="none" stroke="black" d="M557.68,-777.318C551.737,-773.682 546.315,-769.292 541.758,-764 394.642,-593.136 636.538,-419.074 475.758,-261 469.038,-254.394 461.641,-248.749 453.739,-243.947"/>
<polygon fill="none" stroke="black" points="455.413,-240.873 444.975,-239.061 452.005,-246.987 455.413,-240.873"/>
</g>
<!-- \\bcGen\\MainBundle\\Tests\\Entity\\InnerCommunicationTest -->
<g id="node33" class="node"><title>\\bcGen\\MainBundle\\Tests\\Entity\\InnerCommunicationTest</title>
<polygon fill="none" stroke="black" points="729.758,-920 564.758,-920 564.758,-884 729.758,-884 729.758,-920"/>
<text text-anchor="middle" x="647.258" y="-899.2" font-family="Courier,monospace" font-size="11.00">InnerCommunicationTest</text>
</g>
<!-- \\bcGen\\MainBundle\\Tests\\Entity\\InnerCommunicationTest&#45;&gt;\\PHPUnit_Framework_TestCase -->
<g id="edge23" class="edge"><title>\\bcGen\\MainBundle\\Tests\\Entity\\InnerCommunicationTest&#45;&gt;\\PHPUnit_Framework_TestCase</title>
<path fill="none" stroke="black" d="M564.637,-891.638C555.97,-887.602 548.042,-882.199 541.758,-875 376.955,-686.198 653.305,-491.87 475.758,-315 438.173,-277.559 378.846,-270.841 328.969,-273.467"/>
<polygon fill="none" stroke="black" points="328.554,-269.987 318.805,-274.136 329.013,-276.972 328.554,-269.987"/>
</g>
<!-- \\bcGen\\MainBundle\\Tests\\Entity\\ChromosomeTest -->
<g id="node34" class="node"><title>\\bcGen\\MainBundle\\Tests\\Entity\\ChromosomeTest</title>
<polygon fill="none" stroke="black" points="702.758,-866 591.758,-866 591.758,-830 702.758,-830 702.758,-866"/>
<text text-anchor="middle" x="647.258" y="-845.2" font-family="Courier,monospace" font-size="11.00">ChromosomeTest</text>
</g>
<!-- \\bcGen\\MainBundle\\Tests\\Entity\\ChromosomeTest&#45;&gt;\\PHPUnit_Framework_TestCase -->
<g id="edge24" class="edge"><title>\\bcGen\\MainBundle\\Tests\\Entity\\ChromosomeTest&#45;&gt;\\PHPUnit_Framework_TestCase</title>
<path fill="none" stroke="black" d="M591.505,-845.887C573.201,-842.374 554.291,-835.18 541.758,-821 391.562,-651.069 637.42,-474.062 475.758,-315 438.218,-278.064 379.48,-271.174 329.889,-273.587"/>
<polygon fill="none" stroke="black" points="329.544,-270.101 319.779,-274.211 329.976,-277.088 329.544,-270.101"/>
</g>
<!-- \\bcGen\\MainBundle\\Tests\\Entity\\AnnotationTest -->
<g id="node35" class="node"><title>\\bcGen\\MainBundle\\Tests\\Entity\\AnnotationTest</title>
<polygon fill="none" stroke="black" points="702.758,-1190 591.758,-1190 591.758,-1154 702.758,-1154 702.758,-1190"/>
<text text-anchor="middle" x="647.258" y="-1169.2" font-family="Courier,monospace" font-size="11.00">AnnotationTest</text>
</g>
<!-- \\bcGen\\MainBundle\\Tests\\Entity\\AnnotationTest&#45;&gt;\\PHPUnit_Framework_TestCase -->
<g id="edge25" class="edge"><title>\\bcGen\\MainBundle\\Tests\\Entity\\AnnotationTest&#45;&gt;\\PHPUnit_Framework_TestCase</title>
<path fill="none" stroke="black" d="M591.653,-1170.33C573.138,-1166.89 554.051,-1159.63 541.758,-1145 422.751,-1003.32 604.339,-448.048 475.758,-315 438.207,-276.145 377.355,-269.897 326.73,-273.104"/>
<polygon fill="none" stroke="black" points="326.457,-269.615 316.752,-273.865 326.989,-276.594 326.457,-269.615"/>
</g>
<!-- \\bcGen\\MainBundle\\Tests\\Controller\\DefaultControllerTest -->
<g id="node36" class="node"><title>\\bcGen\\MainBundle\\Tests\\Controller\\DefaultControllerTest</title>
<polygon fill="none" stroke="black" points="726.258,-732 568.258,-732 568.258,-696 726.258,-696 726.258,-732"/>
<text text-anchor="middle" x="647.258" y="-711.2" font-family="Courier,monospace" font-size="11.00">DefaultControllerTest</text>
</g>
<!-- \\Symfony\\Bundle\\FrameworkBundle\\Test\\WebTestCase -->
<g id="node46" class="node"><title>\\Symfony\\Bundle\\FrameworkBundle\\Test\\WebTestCase</title>
<ellipse fill="none" stroke="black" cx="237.879" cy="-180" rx="209.063" ry="18"/>
<text text-anchor="middle" x="237.879" y="-176.3" font-family="Times,serif" font-size="14.00" fill="gray">\Symfony\Bundle\FrameworkBundleTest\WebTestCase</text>
</g>
<!-- \\bcGen\\MainBundle\\Tests\\Controller\\DefaultControllerTest&#45;&gt;\\Symfony\\Bundle\\FrameworkBundle\\Test\\WebTestCase -->
<g id="edge26" class="edge"><title>\\bcGen\\MainBundle\\Tests\\Controller\\DefaultControllerTest&#45;&gt;\\Symfony\\Bundle\\FrameworkBundle\\Test\\WebTestCase</title>
<path fill="none" stroke="black" d="M568.068,-696.581C558.025,-691.408 548.806,-684.7 541.758,-676 409.248,-512.444 626.548,-353.874 475.758,-207 468.364,-199.798 460.162,-193.743 451.381,-188.68"/>
<polygon fill="none" stroke="black" points="452.892,-185.519 442.415,-183.941 449.621,-191.708 452.892,-185.519"/>
</g>
<!-- \\bcGen\\MainBundle\\DependencyInjection\\bcGenMainExtension -->
<g id="node37" class="node"><title>\\bcGen\\MainBundle\\DependencyInjection\\bcGenMainExtension</title>
<polygon fill="none" stroke="black" points="716.258,-644 578.258,-644 578.258,-608 716.258,-608 716.258,-644"/>
<text text-anchor="middle" x="647.258" y="-623.2" font-family="Courier,monospace" font-size="11.00">bcGenMainExtension</text>
</g>
<!-- \\Symfony\\Component\\HttpKernel\\DependencyInjection\\Extension -->
<g id="node47" class="node"><title>\\Symfony\\Component\\HttpKernel\\DependencyInjection\\Extension</title>
<ellipse fill="none" stroke="black" cx="237.879" cy="-126" rx="236.658" ry="18"/>
<text text-anchor="middle" x="237.879" y="-122.3" font-family="Times,serif" font-size="14.00" fill="gray">\Symfony\ComponentHttpKernel\DependencyInjectionxtension</text>
</g>
<!-- \\bcGen\\MainBundle\\DependencyInjection\\bcGenMainExtension&#45;&gt;\\Symfony\\Component\\HttpKernel\\DependencyInjection\\Extension -->
<g id="edge27" class="edge"><title>\\bcGen\\MainBundle\\DependencyInjection\\bcGenMainExtension&#45;&gt;\\Symfony\\Component\\HttpKernel\\DependencyInjection\\Extension</title>
<path fill="none" stroke="black" d="M578.043,-620.431C564.359,-616.27 551.28,-609.589 541.758,-599 407.767,-450.007 619.796,-292.303 475.758,-153 470.56,-147.973 464.969,-143.507 459.062,-139.548"/>
<polygon fill="none" stroke="black" points="460.545,-136.351 450.191,-134.104 456.884,-142.318 460.545,-136.351"/>
</g>
<!-- \\bcGen\\MainBundle\\DependencyInjection\\Configuration -->
<g id="node38" class="node"><title>\\bcGen\\MainBundle\\DependencyInjection\\Configuration</title>
<polygon fill="none" stroke="black" points="699.258,-590 595.258,-590 595.258,-554 699.258,-554 699.258,-590"/>
<text text-anchor="middle" x="647.258" y="-569.2" font-family="Courier,monospace" font-size="11.00">Configuration</text>
</g>
<!-- \\Symfony\\Component\\Config\\Definition\\ConfigurationInterface -->
<g id="node48" class="node"><title>\\Symfony\\Component\\Config\\Definition\\ConfigurationInterface</title>
<ellipse fill="none" stroke="black" cx="237.879" cy="-72" rx="237.758" ry="18"/>
<text text-anchor="middle" x="237.879" y="-68.3" font-family="Times,serif" font-size="14.00" fill="gray">\Symfony\Component\Config\Definition\ConfigurationInterface</text>
</g>
<!-- \\bcGen\\MainBundle\\DependencyInjection\\Configuration&#45;&gt;\\Symfony\\Component\\Config\\Definition\\ConfigurationInterface -->
<g id="edge28" class="edge"><title>\\bcGen\\MainBundle\\DependencyInjection\\Configuration&#45;&gt;\\Symfony\\Component\\Config\\Definition\\ConfigurationInterface</title>
<path fill="none" stroke="black" stroke-dasharray="1,5" d="M595.071,-573.009C575.827,-570.672 555.342,-564.457 541.758,-550 403.035,-402.371 621.264,-239.948 475.758,-99 470.614,-94.0176 465.084,-89.5853 459.243,-85.6516"/>
<polygon fill="none" stroke="black" points="460.82,-82.5118 450.472,-80.2389 457.144,-88.4689 460.82,-82.5118"/>
</g>
<!-- \\bcGen\\MainBundle\\bcGenMainBundle -->
<g id="node39" class="node"><title>\\bcGen\\MainBundle\\bcGenMainBundle</title>
<polygon fill="none" stroke="black" points="706.258,-536 588.258,-536 588.258,-500 706.258,-500 706.258,-536"/>
<text text-anchor="middle" x="647.258" y="-515.2" font-family="Courier,monospace" font-size="11.00">bcGenMainBundle</text>
</g>
<!-- \\Symfony\\Component\\HttpKernel\\Bundle\\Bundle -->
<g id="node43" class="node"><title>\\Symfony\\Component\\HttpKernel\\Bundle\\Bundle</title>
<ellipse fill="none" stroke="black" cx="237.879" cy="-18" rx="184.667" ry="18"/>
<text text-anchor="middle" x="237.879" y="-14.3" font-family="Times,serif" font-size="14.00" fill="gray">\Symfony\ComponentHttpKernel\Bundle\Bundle</text>
</g>
<!-- \\bcGen\\MainBundle\\bcGenMainBundle&#45;&gt;\\Symfony\\Component\\HttpKernel\\Bundle\\Bundle -->
<g id="edge17" class="edge"><title>\\bcGen\\MainBundle\\bcGenMainBundle&#45;&gt;\\Symfony\\Component\\HttpKernel\\Bundle\\Bundle</title>
<path fill="none" stroke="black" d="M646.027,-499.637C644.039,-427.827 626.382,-164.127 475.758,-45 462.786,-34.7406 448.092,-27.0261 432.531,-21.3119"/>
<polygon fill="none" stroke="black" points="433.332,-17.8882 422.737,-18.0077 431.094,-24.5209 433.332,-17.8882"/>
</g>
</g>
</svg>
