<?xml version="1.0" encoding="UTF-8" standalone="no"?>
<!DOCTYPE svg PUBLIC "-//W3C//DTD SVG 1.1//EN"
 "http://www.w3.org/Graphics/SVG/1.1/DTD/svg11.dtd">
<!-- Generated by graphviz version 2.38.0 (20140413.2041)
 -->
<!-- Title: G Pages: 1 -->
<svg width="813pt" height="2262pt"
 viewBox="0.00 0.00 812.96 2262.00" xmlns="http://www.w3.org/2000/svg" xmlns:xlink="http://www.w3.org/1999/xlink">
<g id="graph0" class="graph" transform="scale(1 1) rotate(0) translate(4 2258)">
<title>G</title>
<polygon fill="white" stroke="none" points="-4,4 -4,-2258 808.956,-2258 808.956,4 -4,4"/>
<g id="clust1" class="cluster"><title>cluster_Global</title>
<path fill="none" stroke="gray" d="M198.478,-368C198.478,-368 784.956,-368 784.956,-368 790.956,-368 796.956,-374 796.956,-380 796.956,-380 796.956,-2234 796.956,-2234 796.956,-2240 790.956,-2246 784.956,-2246 784.956,-2246 198.478,-2246 198.478,-2246 192.478,-2246 186.478,-2240 186.478,-2234 186.478,-2234 186.478,-380 186.478,-380 186.478,-374 192.478,-368 198.478,-368"/>
<text text-anchor="middle" x="491.717" y="-2233.2" font-family="Times,serif" font-size="11.00" fill="gray">Global</text>
</g>
<g id="clust2" class="cluster"><title>cluster_\bcGen</title>
<path fill="none" stroke="gray" d="M206.478,-376C206.478,-376 776.956,-376 776.956,-376 782.956,-376 788.956,-382 788.956,-388 788.956,-388 788.956,-2206 788.956,-2206 788.956,-2212 782.956,-2218 776.956,-2218 776.956,-2218 206.478,-2218 206.478,-2218 200.478,-2218 194.478,-2212 194.478,-2206 194.478,-2206 194.478,-388 194.478,-388 194.478,-382 200.478,-376 206.478,-376"/>
<text text-anchor="middle" x="491.717" y="-2205.2" font-family="Times,serif" font-size="11.00" fill="gray">bcGen</text>
</g>
<g id="clust3" class="cluster"><title>cluster_\bcGen\MainBundle</title>
<path fill="none" stroke="gray" d="M214.478,-384C214.478,-384 768.956,-384 768.956,-384 774.956,-384 780.956,-390 780.956,-396 780.956,-396 780.956,-2178 780.956,-2178 780.956,-2184 774.956,-2190 768.956,-2190 768.956,-2190 214.478,-2190 214.478,-2190 208.478,-2190 202.478,-2184 202.478,-2178 202.478,-2178 202.478,-396 202.478,-396 202.478,-390 208.478,-384 214.478,-384"/>
<text text-anchor="middle" x="491.717" y="-2177.2" font-family="Times,serif" font-size="11.00" fill="gray">MainBundle</text>
</g>
<g id="clust4" class="cluster"><title>cluster_\bcGen\MainBundle\Entity</title>
<path fill="none" stroke="gray" d="M222.478,-902C222.478,-902 760.956,-902 760.956,-902 766.956,-902 772.956,-908 772.956,-914 772.956,-914 772.956,-2150 772.956,-2150 772.956,-2156 766.956,-2162 760.956,-2162 760.956,-2162 222.478,-2162 222.478,-2162 216.478,-2162 210.478,-2156 210.478,-2150 210.478,-2150 210.478,-914 210.478,-914 210.478,-908 216.478,-902 222.478,-902"/>
<text text-anchor="middle" x="491.717" y="-2149.2" font-family="Times,serif" font-size="11.00" fill="gray">Entity</text>
</g>
<g id="clust5" class="cluster"><title>cluster_\bcGen\MainBundle\Tests</title>
<path fill="none" stroke="gray" d="M582.456,-786C582.456,-786 748.456,-786 748.456,-786 754.456,-786 760.456,-792 760.456,-798 760.456,-798 760.456,-882 760.456,-882 760.456,-888 754.456,-894 748.456,-894 748.456,-894 582.456,-894 582.456,-894 576.456,-894 570.456,-888 570.456,-882 570.456,-882 570.456,-798 570.456,-798 570.456,-792 576.456,-786 582.456,-786"/>
<text text-anchor="middle" x="665.456" y="-881.2" font-family="Times,serif" font-size="11.00" fill="gray">Tests</text>
</g>
<g id="clust6" class="cluster"><title>cluster_\bcGen\MainBundle\Tests\Controller</title>
<path fill="none" stroke="gray" d="M590.456,-794C590.456,-794 740.456,-794 740.456,-794 746.456,-794 752.456,-800 752.456,-806 752.456,-806 752.456,-854 752.456,-854 752.456,-860 746.456,-866 740.456,-866 740.456,-866 590.456,-866 590.456,-866 584.456,-866 578.456,-860 578.456,-854 578.456,-854 578.456,-806 578.456,-806 578.456,-800 584.456,-794 590.456,-794"/>
<text text-anchor="middle" x="665.456" y="-853.2" font-family="Times,serif" font-size="11.00" fill="gray">Controller</text>
</g>
<g id="clust7" class="cluster"><title>cluster_\bcGen\MainBundle\Form</title>
<path fill="none" stroke="gray" d="M610.456,-652C610.456,-652 720.456,-652 720.456,-652 726.456,-652 732.456,-658 732.456,-664 732.456,-664 732.456,-766 732.456,-766 732.456,-772 726.456,-778 720.456,-778 720.456,-778 610.456,-778 610.456,-778 604.456,-778 598.456,-772 598.456,-766 598.456,-766 598.456,-664 598.456,-664 598.456,-658 604.456,-652 610.456,-652"/>
<text text-anchor="middle" x="665.456" y="-765.2" font-family="Times,serif" font-size="11.00" fill="gray">Form</text>
</g>
<g id="clust8" class="cluster"><title>cluster_\bcGen\MainBundle\DependencyInjection</title>
<path fill="none" stroke="gray" d="M600.456,-518C600.456,-518 730.456,-518 730.456,-518 736.456,-518 742.456,-524 742.456,-530 742.456,-530 742.456,-632 742.456,-632 742.456,-638 736.456,-644 730.456,-644 730.456,-644 600.456,-644 600.456,-644 594.456,-644 588.456,-638 588.456,-632 588.456,-632 588.456,-530 588.456,-530 588.456,-524 594.456,-518 600.456,-518"/>
<text text-anchor="middle" x="665.456" y="-631.2" font-family="Times,serif" font-size="11.00" fill="gray">DependencyInjection</text>
</g>
<g id="clust9" class="cluster"><title>cluster_\bcGen\MainBundle\Controller</title>
<path fill="none" stroke="gray" d="M613.956,-438C613.956,-438 716.956,-438 716.956,-438 722.956,-438 728.956,-444 728.956,-450 728.956,-450 728.956,-498 728.956,-498 728.956,-504 722.956,-510 716.956,-510 716.956,-510 613.956,-510 613.956,-510 607.956,-510 601.956,-504 601.956,-498 601.956,-498 601.956,-450 601.956,-450 601.956,-444 607.956,-438 613.956,-438"/>
<text text-anchor="middle" x="665.456" y="-497.2" font-family="Times,serif" font-size="11.00" fill="gray">Controller</text>
</g>
<!-- \\bcGen\\MainBundle\\Entity\\ProteinAnnotationRepository -->
<g id="node1" class="node"><title>\\bcGen\\MainBundle\\Entity\\ProteinAnnotationRepository</title>
<polygon fill="none" stroke="black" points="764.956,-946 565.956,-946 565.956,-910 764.956,-910 764.956,-946"/>
<text text-anchor="middle" x="665.456" y="-925.2" font-family="Courier,monospace" font-size="11.00">ProteinAnnotationRepository</text>
</g>
<!-- \\Doctrine\\ORM\\EntityRepository -->
<g id="node32" class="node"><title>\\Doctrine\\ORM\\EntityRepository</title>
<ellipse fill="none" stroke="black" cx="246.978" cy="-342" rx="129.177" ry="18"/>
<text text-anchor="middle" x="246.978" y="-338.3" font-family="Times,serif" font-size="14.00" fill="gray">\Doctrine\ORM\EntityRepository</text>
</g>
<!-- \\bcGen\\MainBundle\\Entity\\ProteinAnnotationRepository&#45;&gt;\\Doctrine\\ORM\\EntityRepository -->
<g id="edge1" class="edge"><title>\\bcGen\\MainBundle\\Entity\\ProteinAnnotationRepository&#45;&gt;\\Doctrine\\ORM\\EntityRepository</title>
<path fill="none" stroke="black" d="M623.953,-909.972C604.824,-900.086 582.596,-886.476 565.956,-870 404.842,-710.471 292.597,-453.31 258.698,-369.42"/>
<polygon fill="none" stroke="black" points="261.919,-368.05 254.954,-360.067 255.42,-370.651 261.919,-368.05"/>
</g>
<!-- \\bcGen\\MainBundle\\Entity\\GenomeRepository -->
<g id="node2" class="node"><title>\\bcGen\\MainBundle\\Entity\\GenomeRepository</title>
<polygon fill="none" stroke="black" points="727.956,-2026 602.956,-2026 602.956,-1990 727.956,-1990 727.956,-2026"/>
<text text-anchor="middle" x="665.456" y="-2005.2" font-family="Courier,monospace" font-size="11.00">GenomeRepository</text>
</g>
<!-- \\bcGen\\MainBundle\\Entity\\GenomeRepository&#45;&gt;\\Doctrine\\ORM\\EntityRepository -->
<g id="edge2" class="edge"><title>\\bcGen\\MainBundle\\Entity\\GenomeRepository&#45;&gt;\\Doctrine\\ORM\\EntityRepository</title>
<path fill="none" stroke="black" d="M602.802,-2003.22C588.728,-1999.16 575.209,-1992.33 565.956,-1981 489.673,-1887.59 522.793,-1015.1 493.956,-898 441.084,-683.299 310.032,-447.672 264.153,-369.134"/>
<polygon fill="none" stroke="black" points="267.074,-367.196 258.992,-360.346 261.039,-370.742 267.074,-367.196"/>
</g>
<!-- \\bcGen\\MainBundle\\Entity\\ChromosomeRepository -->
<g id="node3" class="node"><title>\\bcGen\\MainBundle\\Entity\\ChromosomeRepository</title>
<polygon fill="none" stroke="black" points="741.456,-1972 589.456,-1972 589.456,-1936 741.456,-1936 741.456,-1972"/>
<text text-anchor="middle" x="665.456" y="-1951.2" font-family="Courier,monospace" font-size="11.00">ChromosomeRepository</text>
</g>
<!-- \\bcGen\\MainBundle\\Entity\\ChromosomeRepository&#45;&gt;\\Doctrine\\ORM\\EntityRepository -->
<g id="edge3" class="edge"><title>\\bcGen\\MainBundle\\Entity\\ChromosomeRepository&#45;&gt;\\Doctrine\\ORM\\EntityRepository</title>
<path fill="none" stroke="black" d="M589.075,-1944.15C580.21,-1940.09 572.138,-1934.54 565.956,-1927 493.306,-1838.35 521.555,-1009.24 493.956,-898 440.712,-683.391 309.897,-447.706 264.116,-369.143"/>
<polygon fill="none" stroke="black" points="267.041,-367.211 258.966,-360.353 261.002,-370.75 267.041,-367.211"/>
</g>
<!-- \\bcGen\\MainBundle\\Entity\\GeneConditionRepository -->
<g id="node4" class="node"><title>\\bcGen\\MainBundle\\Entity\\GeneConditionRepository</title>
<polygon fill="none" stroke="black" points="751.456,-1918 579.456,-1918 579.456,-1882 751.456,-1882 751.456,-1918"/>
<text text-anchor="middle" x="665.456" y="-1897.2" font-family="Courier,monospace" font-size="11.00">GeneConditionRepository</text>
</g>
<!-- \\bcGen\\MainBundle\\Entity\\GeneConditionRepository&#45;&gt;\\Doctrine\\ORM\\EntityRepository -->
<g id="edge4" class="edge"><title>\\bcGen\\MainBundle\\Entity\\GeneConditionRepository&#45;&gt;\\Doctrine\\ORM\\EntityRepository</title>
<path fill="none" stroke="black" d="M579.349,-1884.81C574.337,-1881.55 569.787,-1877.66 565.956,-1873 427.918,-1705.23 546.678,-1108.76 493.956,-898 440.298,-683.494 309.747,-447.743 264.075,-369.153"/>
<polygon fill="none" stroke="black" points="267.005,-367.228 258.937,-360.36 260.961,-370.76 267.005,-367.228"/>
</g>
<!-- \\bcGen\\MainBundle\\Entity\\ProteinRepository -->
<g id="node5" class="node"><title>\\bcGen\\MainBundle\\Entity\\ProteinRepository</title>
<polygon fill="none" stroke="black" points="730.956,-1702 599.956,-1702 599.956,-1666 730.956,-1666 730.956,-1702"/>
<text text-anchor="middle" x="665.456" y="-1681.2" font-family="Courier,monospace" font-size="11.00">ProteinRepository</text>
</g>
<!-- \\bcGen\\MainBundle\\Entity\\ProteinRepository&#45;&gt;\\Doctrine\\ORM\\EntityRepository -->
<g id="edge5" class="edge"><title>\\bcGen\\MainBundle\\Entity\\ProteinRepository&#45;&gt;\\Doctrine\\ORM\\EntityRepository</title>
<path fill="none" stroke="black" d="M599.705,-1678.03C586.83,-1673.89 574.626,-1667.32 565.956,-1657 456.951,-1527.3 536.783,-1061.92 493.956,-898 437.935,-683.575 308.342,-446.868 263.545,-368.67"/>
<polygon fill="none" stroke="black" points="266.537,-366.851 258.513,-359.932 260.47,-370.344 266.537,-366.851"/>
</g>
<!-- \\bcGen\\MainBundle\\Entity\\GeneCondition -->
<g id="node6" class="node"><title>\\bcGen\\MainBundle\\Entity\\GeneCondition</title>
<polygon fill="none" stroke="black" points="717.456,-1864 613.456,-1864 613.456,-1828 717.456,-1828 717.456,-1864"/>
<text text-anchor="middle" x="665.456" y="-1843.2" font-family="Courier,monospace" font-size="11.00">GeneCondition</text>
</g>
<!-- \\bcGen\\MainBundle\\Entity\\Chromosome -->
<g id="node7" class="node"><title>\\bcGen\\MainBundle\\Entity\\Chromosome</title>
<polygon fill="none" stroke="black" points="707.456,-1810 623.456,-1810 623.456,-1774 707.456,-1774 707.456,-1810"/>
<text text-anchor="middle" x="665.456" y="-1789.2" font-family="Courier,monospace" font-size="11.00">Chromosome</text>
</g>
<!-- \\bcGen\\MainBundle\\Entity\\ProteinAnnotation -->
<g id="node8" class="node"><title>\\bcGen\\MainBundle\\Entity\\ProteinAnnotation</title>
<polygon fill="none" stroke="black" points="730.956,-1756 599.956,-1756 599.956,-1720 730.956,-1720 730.956,-1756"/>
<text text-anchor="middle" x="665.456" y="-1735.2" font-family="Courier,monospace" font-size="11.00">ProteinAnnotation</text>
</g>
<!-- \\bcGen\\MainBundle\\Entity\\LocusRepository -->
<g id="node9" class="node"><title>\\bcGen\\MainBundle\\Entity\\LocusRepository</title>
<polygon fill="none" stroke="black" points="724.456,-1432 606.456,-1432 606.456,-1396 724.456,-1396 724.456,-1432"/>
<text text-anchor="middle" x="665.456" y="-1411.2" font-family="Courier,monospace" font-size="11.00">LocusRepository</text>
</g>
<!-- \\bcGen\\MainBundle\\Entity\\LocusRepository&#45;&gt;\\Doctrine\\ORM\\EntityRepository -->
<g id="edge7" class="edge"><title>\\bcGen\\MainBundle\\Entity\\LocusRepository&#45;&gt;\\Doctrine\\ORM\\EntityRepository</title>
<path fill="none" stroke="black" d="M606.236,-1409.47C591.172,-1405.52 576.3,-1398.68 565.956,-1387 420.327,-1222.53 554.951,-1109.04 493.956,-898 432.421,-685.091 306.359,-447.413 263.01,-368.817"/>
<polygon fill="none" stroke="black" points="266.052,-367.085 258.144,-360.033 259.929,-370.477 266.052,-367.085"/>
</g>
<!-- \\bcGen\\MainBundle\\Entity\\Publication -->
<g id="node10" class="node"><title>\\bcGen\\MainBundle\\Entity\\Publication</title>
<polygon fill="none" stroke="black" points="710.956,-2080 619.956,-2080 619.956,-2044 710.956,-2044 710.956,-2080"/>
<text text-anchor="middle" x="665.456" y="-2059.2" font-family="Courier,monospace" font-size="11.00">Publication</text>
</g>
<!-- \\bcGen\\MainBundle\\Entity\\Source -->
<g id="node14" class="node"><title>\\bcGen\\MainBundle\\Entity\\Source</title>
<polygon fill="none" stroke="black" points="275.478,-2107 218.478,-2107 218.478,-2071 275.478,-2071 275.478,-2107"/>
<text text-anchor="middle" x="246.978" y="-2086.2" font-family="Courier,monospace" font-size="11.00">Source</text>
</g>
<!-- \\bcGen\\MainBundle\\Entity\\Publication&#45;&gt;\\bcGen\\MainBundle\\Entity\\Source -->
<g id="edge8" class="edge"><title>\\bcGen\\MainBundle\\Entity\\Publication&#45;&gt;\\bcGen\\MainBundle\\Entity\\Source</title>
<path fill="none" stroke="black" d="M619.886,-2064.89C537.514,-2070.23 362.844,-2081.55 285.818,-2086.55"/>
<polygon fill="none" stroke="black" points="285.369,-2083.07 275.617,-2087.21 285.822,-2090.05 285.369,-2083.07"/>
</g>
<!-- \\bcGen\\MainBundle\\Entity\\LocusChromosome -->
<g id="node11" class="node"><title>\\bcGen\\MainBundle\\Entity\\LocusChromosome</title>
<polygon fill="none" stroke="black" points="724.456,-1594 606.456,-1594 606.456,-1558 724.456,-1558 724.456,-1594"/>
<text text-anchor="middle" x="665.456" y="-1573.2" font-family="Courier,monospace" font-size="11.00">LocusChromosome</text>
</g>
<!-- \\bcGen\\MainBundle\\Entity\\Gene -->
<g id="node12" class="node"><title>\\bcGen\\MainBundle\\Entity\\Gene</title>
<polygon fill="none" stroke="black" points="692.456,-1540 638.456,-1540 638.456,-1504 692.456,-1504 692.456,-1540"/>
<text text-anchor="middle" x="665.456" y="-1519.2" font-family="Courier,monospace" font-size="11.00">Gene</text>
</g>
<!-- \\bcGen\\MainBundle\\Entity\\Protein -->
<g id="node13" class="node"><title>\\bcGen\\MainBundle\\Entity\\Protein</title>
<polygon fill="none" stroke="black" points="697.456,-1486 633.456,-1486 633.456,-1450 697.456,-1450 697.456,-1486"/>
<text text-anchor="middle" x="665.456" y="-1465.2" font-family="Courier,monospace" font-size="11.00">Protein</text>
</g>
<!-- \\bcGen\\MainBundle\\Entity\\InnerCommunication -->
<g id="node15" class="node"><title>\\bcGen\\MainBundle\\Entity\\InnerCommunication</title>
<polygon fill="none" stroke="black" points="734.456,-2134 596.456,-2134 596.456,-2098 734.456,-2098 734.456,-2134"/>
<text text-anchor="middle" x="665.456" y="-2113.2" font-family="Courier,monospace" font-size="11.00">InnerCommunication</text>
</g>
<!-- \\bcGen\\MainBundle\\Entity\\InnerCommunication&#45;&gt;\\bcGen\\MainBundle\\Entity\\Source -->
<g id="edge12" class="edge"><title>\\bcGen\\MainBundle\\Entity\\InnerCommunication&#45;&gt;\\bcGen\\MainBundle\\Entity\\Source</title>
<path fill="none" stroke="black" d="M596.15,-2111.57C507.691,-2105.84 356.53,-2096.04 286.137,-2091.47"/>
<polygon fill="none" stroke="black" points="286.16,-2087.97 275.954,-2090.81 285.707,-2094.95 286.16,-2087.97"/>
</g>
<!-- \\bcGen\\MainBundle\\Entity\\GeneRepository -->
<g id="node16" class="node"><title>\\bcGen\\MainBundle\\Entity\\GeneRepository</title>
<polygon fill="none" stroke="black" points="720.956,-1162 609.956,-1162 609.956,-1126 720.956,-1126 720.956,-1162"/>
<text text-anchor="middle" x="665.456" y="-1141.2" font-family="Courier,monospace" font-size="11.00">GeneRepository</text>
</g>
<!-- \\bcGen\\MainBundle\\Entity\\GeneRepository&#45;&gt;\\Doctrine\\ORM\\EntityRepository -->
<g id="edge13" class="edge"><title>\\bcGen\\MainBundle\\Entity\\GeneRepository&#45;&gt;\\Doctrine\\ORM\\EntityRepository</title>
<path fill="none" stroke="black" d="M609.786,-1138.86C593.997,-1134.96 577.841,-1128.3 565.956,-1117 491.715,-1046.39 530.728,-993.633 493.956,-898 414.398,-691.09 299.826,-449.468 261.235,-369.344"/>
<polygon fill="none" stroke="black" points="264.207,-367.45 256.709,-359.965 257.903,-370.492 264.207,-367.45"/>
</g>
<!-- \\bcGen\\MainBundle\\Entity\\Annotation -->
<g id="node17" class="node"><title>\\bcGen\\MainBundle\\Entity\\Annotation</title>
<polygon fill="none" stroke="black" points="707.456,-1324 623.456,-1324 623.456,-1288 707.456,-1288 707.456,-1324"/>
<text text-anchor="middle" x="665.456" y="-1303.2" font-family="Courier,monospace" font-size="11.00">Annotation</text>
</g>
<!-- \\bcGen\\MainBundle\\Entity\\Locus -->
<g id="node18" class="node"><title>\\bcGen\\MainBundle\\Entity\\Locus</title>
<polygon fill="none" stroke="black" points="692.456,-1270 638.456,-1270 638.456,-1234 692.456,-1234 692.456,-1270"/>
<text text-anchor="middle" x="665.456" y="-1249.2" font-family="Courier,monospace" font-size="11.00">Locus</text>
</g>
<!-- \\bcGen\\MainBundle\\Entity\\Condition -->
<g id="node19" class="node"><title>\\bcGen\\MainBundle\\Entity\\Condition</title>
<polygon fill="none" stroke="black" points="703.956,-1216 626.956,-1216 626.956,-1180 703.956,-1180 703.956,-1216"/>
<text text-anchor="middle" x="665.456" y="-1195.2" font-family="Courier,monospace" font-size="11.00">Condition</text>
</g>
<!-- \\bcGen\\MainBundle\\Entity\\SourceRepository -->
<g id="node20" class="node"><title>\\bcGen\\MainBundle\\Entity\\SourceRepository</title>
<polygon fill="none" stroke="black" points="727.956,-1108 602.956,-1108 602.956,-1072 727.956,-1072 727.956,-1108"/>
<text text-anchor="middle" x="665.456" y="-1087.2" font-family="Courier,monospace" font-size="11.00">SourceRepository</text>
</g>
<!-- \\bcGen\\MainBundle\\Entity\\SourceRepository&#45;&gt;\\Doctrine\\ORM\\EntityRepository -->
<g id="edge17" class="edge"><title>\\bcGen\\MainBundle\\Entity\\SourceRepository&#45;&gt;\\Doctrine\\ORM\\EntityRepository</title>
<path fill="none" stroke="black" d="M602.727,-1082.04C589.473,-1078.02 576.347,-1071.99 565.956,-1063 505.459,-1010.64 526.142,-971.252 493.956,-898 404.783,-695.048 296.372,-450.89 260.304,-369.727"/>
<polygon fill="none" stroke="black" points="263.34,-367.94 256.08,-360.224 256.943,-370.783 263.34,-367.94"/>
</g>
<!-- \\bcGen\\MainBundle\\Entity\\AnnotationRepository -->
<g id="node21" class="node"><title>\\bcGen\\MainBundle\\Entity\\AnnotationRepository</title>
<polygon fill="none" stroke="black" points="741.456,-1054 589.456,-1054 589.456,-1018 741.456,-1018 741.456,-1054"/>
<text text-anchor="middle" x="665.456" y="-1033.2" font-family="Courier,monospace" font-size="11.00">AnnotationRepository</text>
</g>
<!-- \\bcGen\\MainBundle\\Entity\\AnnotationRepository&#45;&gt;\\Doctrine\\ORM\\EntityRepository -->
<g id="edge18" class="edge"><title>\\bcGen\\MainBundle\\Entity\\AnnotationRepository&#45;&gt;\\Doctrine\\ORM\\EntityRepository</title>
<path fill="none" stroke="black" d="M588.969,-1022.74C580.657,-1019.19 572.756,-1014.69 565.956,-1009 510.991,-963.009 309.69,-489.063 259.415,-369.349"/>
<polygon fill="none" stroke="black" points="262.635,-367.977 255.54,-360.109 256.18,-370.685 262.635,-367.977"/>
</g>
<!-- \\bcGen\\MainBundle\\Entity\\ConditionRepository -->
<g id="node22" class="node"><title>\\bcGen\\MainBundle\\Entity\\ConditionRepository</title>
<polygon fill="none" stroke="black" points="737.956,-1648 592.956,-1648 592.956,-1612 737.956,-1612 737.956,-1648"/>
<text text-anchor="middle" x="665.456" y="-1627.2" font-family="Courier,monospace" font-size="11.00">ConditionRepository</text>
</g>
<!-- \\bcGen\\MainBundle\\Entity\\ConditionRepository&#45;&gt;\\Doctrine\\ORM\\EntityRepository -->
<g id="edge19" class="edge"><title>\\bcGen\\MainBundle\\Entity\\ConditionRepository&#45;&gt;\\Doctrine\\ORM\\EntityRepository</title>
<path fill="none" stroke="black" d="M592.728,-1621.44C582.5,-1617.3 573.06,-1611.39 565.956,-1603 464.201,-1482.81 534.312,-1050.22 493.956,-898 437.164,-683.778 308.064,-446.941 263.47,-368.69"/>
<polygon fill="none" stroke="black" points="266.469,-366.883 258.462,-359.945 260.395,-370.362 266.469,-366.883"/>
</g>
<!-- \\bcGen\\MainBundle\\Entity\\Genome -->
<g id="node23" class="node"><title>\\bcGen\\MainBundle\\Entity\\Genome</title>
<polygon fill="none" stroke="black" points="693.956,-1000 636.956,-1000 636.956,-964 693.956,-964 693.956,-1000"/>
<text text-anchor="middle" x="665.456" y="-979.2" font-family="Courier,monospace" font-size="11.00">Genome</text>
</g>
<!-- \\bcGen\\MainBundle\\Entity\\LocusChromosomeRepository -->
<g id="node24" class="node"><title>\\bcGen\\MainBundle\\Entity\\LocusChromosomeRepository</title>
<polygon fill="none" stroke="black" points="757.956,-1378 572.956,-1378 572.956,-1342 757.956,-1342 757.956,-1378"/>
<text text-anchor="middle" x="665.456" y="-1357.2" font-family="Courier,monospace" font-size="11.00">LocusChromosomeRepository</text>
</g>
<!-- \\bcGen\\MainBundle\\Entity\\LocusChromosomeRepository&#45;&gt;\\Doctrine\\ORM\\EntityRepository -->
<g id="edge20" class="edge"><title>\\bcGen\\MainBundle\\Entity\\LocusChromosomeRepository&#45;&gt;\\Doctrine\\ORM\\EntityRepository</title>
<path fill="none" stroke="black" d="M575.841,-1341.76C572.252,-1339.2 568.924,-1336.29 565.956,-1333 434.743,-1187.45 550.044,-1085.77 493.956,-898 430.524,-685.649 305.677,-447.614 262.826,-368.871"/>
<polygon fill="none" stroke="black" points="265.884,-367.167 258.017,-360.071 259.741,-370.524 265.884,-367.167"/>
</g>
<!-- \\bcGen\\MainBundle\\Tests\\Controller\\DefaultControllerTest -->
<g id="node25" class="node"><title>\\bcGen\\MainBundle\\Tests\\Controller\\DefaultControllerTest</title>
<polygon fill="none" stroke="black" points="744.456,-838 586.456,-838 586.456,-802 744.456,-802 744.456,-838"/>
<text text-anchor="middle" x="665.456" y="-817.2" font-family="Courier,monospace" font-size="11.00">DefaultControllerTest</text>
</g>
<!-- \\Symfony\\Bundle\\FrameworkBundle\\Test\\WebTestCase -->
<g id="node33" class="node"><title>\\Symfony\\Bundle\\FrameworkBundle\\Test\\WebTestCase</title>
<ellipse fill="none" stroke="black" cx="246.978" cy="-288" rx="211.762" ry="18"/>
<text text-anchor="middle" x="246.978" y="-284.3" font-family="Times,serif" font-size="14.00" fill="gray">\Symfony\Bundle\FrameworkBundle\Test\WebTestCase</text>
</g>
<!-- \\bcGen\\MainBundle\\Tests\\Controller\\DefaultControllerTest&#45;&gt;\\Symfony\\Bundle\\FrameworkBundle\\Test\\WebTestCase -->
<g id="edge6" class="edge"><title>\\bcGen\\MainBundle\\Tests\\Controller\\DefaultControllerTest&#45;&gt;\\Symfony\\Bundle\\FrameworkBundle\\Test\\WebTestCase</title>
<path fill="none" stroke="black" d="M590.797,-801.829C581.324,-796.76 572.622,-790.281 565.956,-782 434.266,-618.412 645.659,-460.222 493.956,-315 485.555,-306.958 476.181,-300.315 466.132,-294.865"/>
<polygon fill="none" stroke="black" points="467.646,-291.709 457.136,-290.377 464.522,-297.973 467.646,-291.709"/>
</g>
<!-- \\bcGen\\MainBundle\\Form\\SearchGeneType -->
<g id="node26" class="node"><title>\\bcGen\\MainBundle\\Form\\SearchGeneType</title>
<polygon fill="none" stroke="black" points="720.956,-750 609.956,-750 609.956,-714 720.956,-714 720.956,-750"/>
<text text-anchor="middle" x="665.456" y="-729.2" font-family="Courier,monospace" font-size="11.00">SearchGeneType</text>
</g>
<!-- \\Symfony\\Component\\Form\\AbstractType -->
<g id="node34" class="node"><title>\\Symfony\\Component\\Form\\AbstractType</title>
<ellipse fill="none" stroke="black" cx="246.978" cy="-234" rx="161.671" ry="18"/>
<text text-anchor="middle" x="246.978" y="-230.3" font-family="Times,serif" font-size="14.00" fill="gray">\Symfony\Component\Form\AbstractType</text>
</g>
<!-- \\bcGen\\MainBundle\\Form\\SearchGeneType&#45;&gt;\\Symfony\\Component\\Form\\AbstractType -->
<g id="edge9" class="edge"><title>\\bcGen\\MainBundle\\Form\\SearchGeneType&#45;&gt;\\Symfony\\Component\\Form\\AbstractType</title>
<path fill="none" stroke="black" d="M609.941,-728.262C593.682,-724.478 577.215,-717.53 565.956,-705 432.342,-556.3 638.903,-398.677 493.956,-261 456.218,-225.155 399.108,-217.19 349.413,-218.745"/>
<polygon fill="none" stroke="black" points="349.091,-215.256 339.257,-219.196 349.402,-222.249 349.091,-215.256"/>
</g>
<!-- \\bcGen\\MainBundle\\Form\\SearchGenesType -->
<g id="node27" class="node"><title>\\bcGen\\MainBundle\\Form\\SearchGenesType</title>
<polygon fill="none" stroke="black" points="724.456,-696 606.456,-696 606.456,-660 724.456,-660 724.456,-696"/>
<text text-anchor="middle" x="665.456" y="-675.2" font-family="Courier,monospace" font-size="11.00">SearchGenesType</text>
</g>
<!-- \\bcGen\\MainBundle\\Form\\SearchGenesType&#45;&gt;\\Symfony\\Component\\Form\\AbstractType -->
<g id="edge15" class="edge"><title>\\bcGen\\MainBundle\\Form\\SearchGenesType&#45;&gt;\\Symfony\\Component\\Form\\AbstractType</title>
<path fill="none" stroke="black" d="M606.419,-671.349C591.357,-666.937 576.441,-659.727 565.956,-648 449.345,-517.578 622.194,-380.009 493.956,-261 456.468,-226.21 400.652,-217.938 351.662,-219.044"/>
<polygon fill="none" stroke="black" points="351.511,-215.547 341.642,-219.4 351.76,-222.542 351.511,-215.547"/>
</g>
<!-- \\bcGen\\MainBundle\\DependencyInjection\\bcGenMainExtension -->
<g id="node28" class="node"><title>\\bcGen\\MainBundle\\DependencyInjection\\bcGenMainExtension</title>
<polygon fill="none" stroke="black" points="734.456,-616 596.456,-616 596.456,-580 734.456,-580 734.456,-616"/>
<text text-anchor="middle" x="665.456" y="-595.2" font-family="Courier,monospace" font-size="11.00">bcGenMainExtension</text>
</g>
<!-- \\Symfony\\Component\\HttpKernel\\DependencyInjection\\Extension -->
<g id="node35" class="node"><title>\\Symfony\\Component\\HttpKernel\\DependencyInjection\\Extension</title>
<ellipse fill="none" stroke="black" cx="246.978" cy="-180" rx="246.956" ry="18"/>
<text text-anchor="middle" x="246.978" y="-176.3" font-family="Times,serif" font-size="14.00" fill="gray">\Symfony\Component\HttpKernel\DependencyInjection\Extension</text>
</g>
<!-- \\bcGen\\MainBundle\\DependencyInjection\\bcGenMainExtension&#45;&gt;\\Symfony\\Component\\HttpKernel\\DependencyInjection\\Extension -->
<g id="edge10" class="edge"><title>\\bcGen\\MainBundle\\DependencyInjection\\bcGenMainExtension&#45;&gt;\\Symfony\\Component\\HttpKernel\\DependencyInjection\\Extension</title>
<path fill="none" stroke="black" d="M596.4,-589.987C584.968,-585.872 574.169,-579.828 565.956,-571 453.634,-450.253 615.469,-318.493 493.956,-207 488.407,-201.908 482.464,-197.387 476.207,-193.382"/>
<polygon fill="none" stroke="black" points="477.879,-190.305 467.488,-188.236 474.321,-196.334 477.879,-190.305"/>
</g>
<!-- \\bcGen\\MainBundle\\DependencyInjection\\Configuration -->
<g id="node29" class="node"><title>\\bcGen\\MainBundle\\DependencyInjection\\Configuration</title>
<polygon fill="none" stroke="black" points="717.456,-562 613.456,-562 613.456,-526 717.456,-526 717.456,-562"/>
<text text-anchor="middle" x="665.456" y="-541.2" font-family="Courier,monospace" font-size="11.00">Configuration</text>
</g>
<!-- \\Symfony\\Component\\Config\\Definition\\ConfigurationInterface -->
<g id="node36" class="node"><title>\\Symfony\\Component\\Config\\Definition\\ConfigurationInterface</title>
<ellipse fill="none" stroke="black" cx="246.978" cy="-126" rx="237.758" ry="18"/>
<text text-anchor="middle" x="246.978" y="-122.3" font-family="Times,serif" font-size="14.00" fill="gray">\Symfony\Component\Config\Definition\ConfigurationInterface</text>
</g>
<!-- \\bcGen\\MainBundle\\DependencyInjection\\Configuration&#45;&gt;\\Symfony\\Component\\Config\\Definition\\ConfigurationInterface -->
<g id="edge11" class="edge"><title>\\bcGen\\MainBundle\\DependencyInjection\\Configuration&#45;&gt;\\Symfony\\Component\\Config\\Definition\\ConfigurationInterface</title>
<path fill="none" stroke="black" stroke-dasharray="1,5" d="M613.44,-539.103C596.143,-534.948 578.137,-527.448 565.956,-514 456.123,-392.744 614.593,-263.513 493.956,-153 487.887,-147.44 481.348,-142.561 474.444,-138.292"/>
<polygon fill="none" stroke="black" points="475.933,-135.112 465.511,-133.205 472.469,-141.195 475.933,-135.112"/>
</g>
<!-- \\bcGen\\MainBundle\\Controller\\MainController -->
<g id="node30" class="node"><title>\\bcGen\\MainBundle\\Controller\\MainController</title>
<polygon fill="none" stroke="black" points="720.956,-482 609.956,-482 609.956,-446 720.956,-446 720.956,-482"/>
<text text-anchor="middle" x="665.456" y="-461.2" font-family="Courier,monospace" font-size="11.00">MainController</text>
</g>
<!-- \\Symfony\\Bundle\\FrameworkBundle\\Controller\\Controller -->
<g id="node37" class="node"><title>\\Symfony\\Bundle\\FrameworkBundle\\Controller\\Controller</title>
<ellipse fill="none" stroke="black" cx="246.978" cy="-72" rx="219.861" ry="18"/>
<text text-anchor="middle" x="246.978" y="-68.3" font-family="Times,serif" font-size="14.00" fill="gray">\Symfony\Bundle\FrameworkBundle\Controller\Controller</text>
</g>
<!-- \\bcGen\\MainBundle\\Controller\\MainController&#45;&gt;\\Symfony\\Bundle\\FrameworkBundle\\Controller\\Controller -->
<g id="edge14" class="edge"><title>\\bcGen\\MainBundle\\Controller\\MainController&#45;&gt;\\Symfony\\Bundle\\FrameworkBundle\\Controller\\Controller</title>
<path fill="none" stroke="black" d="M609.946,-462.801C593.882,-459.801 577.528,-453.721 565.956,-442 456.522,-331.152 609.341,-203.641 493.956,-99 486.259,-92.0194 477.82,-86.1169 468.849,-81.151"/>
<polygon fill="none" stroke="black" points="470.207,-77.9148 459.708,-76.4921 467.028,-84.1515 470.207,-77.9148"/>
</g>
<!-- \\bcGen\\MainBundle\\bcGenMainBundle -->
<g id="node31" class="node"><title>\\bcGen\\MainBundle\\bcGenMainBundle</title>
<polygon fill="none" stroke="black" points="724.456,-428 606.456,-428 606.456,-392 724.456,-392 724.456,-428"/>
<text text-anchor="middle" x="665.456" y="-407.2" font-family="Courier,monospace" font-size="11.00">bcGenMainBundle</text>
</g>
<!-- \\Symfony\\Component\\HttpKernel\\Bundle\\Bundle -->
<g id="node38" class="node"><title>\\Symfony\\Component\\HttpKernel\\Bundle\\Bundle</title>
<ellipse fill="none" stroke="black" cx="246.978" cy="-18" rx="187.367" ry="18"/>
<text text-anchor="middle" x="246.978" y="-14.3" font-family="Times,serif" font-size="14.00" fill="gray">\Symfony\Component\HttpKernel\Bundle\Bundle</text>
</g>
<!-- \\bcGen\\MainBundle\\bcGenMainBundle&#45;&gt;\\Symfony\\Component\\HttpKernel\\Bundle\\Bundle -->
<g id="edge16" class="edge"><title>\\bcGen\\MainBundle\\bcGenMainBundle&#45;&gt;\\Symfony\\Component\\HttpKernel\\Bundle\\Bundle</title>
<path fill="none" stroke="black" d="M662.144,-391.65C653.374,-330.496 616.205,-132.563 493.956,-45 478.927,-34.2351 462,-26.3263 444.239,-20.6176"/>
<polygon fill="none" stroke="black" points="444.875,-17.1556 434.292,-17.6683 442.885,-23.8667 444.875,-17.1556"/>
</g>
</g>
</svg>
